<svg xmlns="http://www.w3.org/2000/svg" width="224" height="197" fill="none" style=""><rect id="backgroundrect" width="100%" height="100%" x="0" y="0" fill="none" stroke="none"/>




















<defs>
<filter id="filter0_d_0_1655" x="41.13869857788086" y="0" width="71.13770294189453" height="70.8561019897461" filterUnits="userSpaceOnUse" color-interpolation-filters="sRGB">
<feFlood flood-opacity="0" result="BackgroundImageFix"/>
<feColorMatrix in="SourceAlpha" type="matrix" values="0 0 0 0 0 0 0 0 0 0 0 0 0 0 0 0 0 0 127 0" result="hardAlpha"/>
<feOffset dx="5" dy="5"/>
<feGaussianBlur stdDeviation="7.5"/>
<feColorMatrix type="matrix" values="0 0 0 0 0 0 0 0 0 0 0 0 0 0 0 0 0 0 0.15 0"/>
<feBlend mode="normal" in2="BackgroundImageFix" result="effect1_dropShadow_0_1655"/>
<feBlend mode="normal" in="SourceGraphic" in2="effect1_dropShadow_0_1655" result="shape"/>
</filter>
<filter id="filter1_d_0_1655" x="183" y="103" width="71.13770294189453" height="70.8561019897461" filterUnits="userSpaceOnUse" color-interpolation-filters="sRGB">
<feFlood flood-opacity="0" result="BackgroundImageFix"/>
<feColorMatrix in="SourceAlpha" type="matrix" values="0 0 0 0 0 0 0 0 0 0 0 0 0 0 0 0 0 0 127 0" result="hardAlpha"/>
<feOffset dx="5" dy="5"/>
<feGaussianBlur stdDeviation="7.5"/>
<feColorMatrix type="matrix" values="0 0 0 0 0 0 0 0 0 0 0 0 0 0 0 0 0 0 0.15 0"/>
<feBlend mode="normal" in2="BackgroundImageFix" result="effect1_dropShadow_0_1655"/>
<feBlend mode="normal" in="SourceGraphic" in2="effect1_dropShadow_0_1655" result="shape"/>
</filter>
<filter id="filter2_d_0_1655" x="0" y="103" width="71.13770294189453" height="70.8561019897461" filterUnits="userSpaceOnUse" color-interpolation-filters="sRGB">
<feFlood flood-opacity="0" result="BackgroundImageFix"/>
<feColorMatrix in="SourceAlpha" type="matrix" values="0 0 0 0 0 0 0 0 0 0 0 0 0 0 0 0 0 0 127 0" result="hardAlpha"/>
<feOffset dx="5" dy="5"/>
<feGaussianBlur stdDeviation="7.5"/>
<feColorMatrix type="matrix" values="0 0 0 0 0 0 0 0 0 0 0 0 0 0 0 0 0 0 0.15 0"/>
<feBlend mode="normal" in2="BackgroundImageFix" result="effect1_dropShadow_0_1655"/>
<feBlend mode="normal" in="SourceGraphic" in2="effect1_dropShadow_0_1655" result="shape"/>
</filter>
<filter id="filter3_d_0_1655" x="138" y="0" width="71.13770294189453" height="70.8561019897461" filterUnits="userSpaceOnUse" color-interpolation-filters="sRGB">
<feFlood flood-opacity="0" result="BackgroundImageFix"/>
<feColorMatrix in="SourceAlpha" type="matrix" values="0 0 0 0 0 0 0 0 0 0 0 0 0 0 0 0 0 0 127 0" result="hardAlpha"/>
<feOffset dx="5" dy="5"/>
<feGaussianBlur stdDeviation="7.5"/>
<feColorMatrix type="matrix" values="0 0 0 0 0 0 0 0 0 0 0 0 0 0 0 0 0 0 0.15 0"/>
<feBlend mode="normal" in2="BackgroundImageFix" result="effect1_dropShadow_0_1655"/>
<feBlend mode="normal" in="SourceGraphic" in2="effect1_dropShadow_0_1655" result="shape"/>
</filter>
<linearGradient id="paint0_linear_0_1655" x1="0.5020500296932886" y1="0.054300488105954406" x2="0.4851833471687925" y2="1.0398792913120096">
<stop stop-color="white" stop-opacity="0"/>
<stop offset="1" stop-color="#64B5F6" stop-opacity="0.6"/>
</linearGradient>
<linearGradient id="paint1_linear_0_1655" x1="-0.3029562317202688" y1="-0.13582669988167037" x2="0.7917376075156499" y2="0.8607294768636917">
<stop stop-color="#E57373"/>
<stop offset="1" stop-color="#AD1457"/>
</linearGradient>
<linearGradient id="paint2_linear_0_1655" x1="456.5981092772758" y1="551.3313733525767" x2="425.47482122496586" y2="683.4144867183728">
<stop stop-color="#E57373"/>
<stop offset="1" stop-color="#AD1457"/>
</linearGradient>
<linearGradient id="paint3_linear_0_1655" x1="1.1490152006537242" y1="0.2566960542948238" x2="0.08880569278231862" y2="0.842488582878618">
<stop stop-color="#FFF8E1"/>
<stop offset="1" stop-color="#FFCC80"/>
</linearGradient>
<linearGradient id="paint4_linear_0_1655" x1="444.5285367677881" y1="667.1461245754905" x2="389.46723643676364" y2="612.5230742852519">
<stop stop-color="#FFF8E1"/>
<stop offset="1" stop-color="#FFCC80"/>
</linearGradient>
<linearGradient id="paint5_linear_0_1655" x1="1.1492440606229375" y1="0.2566440279018189" x2="-0.0633135576463215" y2="0.5952027134267771">
<stop stop-color="#FFF8E1"/>
<stop offset="1" stop-color="#FFCC80"/>
</linearGradient>
<linearGradient id="paint6_linear_0_1655" x1="0.8090806104506947" y1="-0.0047522705072463355" x2="0.10500356226686976" y2="1.0520472225537336">
<stop stop-color="#FFB74D"/>
<stop offset="1" stop-color="#F4511E"/>
</linearGradient>
</defs>
<g class="currentLayer" style=""><title>Layer 1</title><path d="M178.522,125.763 C178.53,134.946 176.606,144.029 172.874,152.431 C169.141,160.833 163.683,168.367 156.848,174.552 C154.946,176.274 152.947,177.886 150.861,179.382 C148.183,181.301 145.363,183.017 142.427,184.517 H142.396 C141.77,184.844 141.134,185.154 140.493,185.455 C140.2,185.598 139.913,185.73 139.616,185.863 C137.758,186.708 135.854,187.467 133.901,188.14 C132.362,188.649 130.782,189.159 129.186,189.577 C119.983,192.008 110.363,192.458 100.971,190.896 C99.857,190.713 98.76,190.504 97.667,190.265 L96.743,190.056 C93.956,189.409 91.214,188.582 88.5353,187.58 C86.9792,186.999 85.4539,186.362 83.9593,185.669 C83.3796,185.399 82.7999,185.124 82.2304,184.838 C81.8406,184.645 81.4558,184.446 81.071,184.247 C70.6328,178.803 61.839,170.702 55.590199999999996,160.772 C49.3414,150.843 45.862,139.442 45.5084,127.738 C45.1549,116.034 47.9398,104.447 53.578,94.163 C59.2162,83.8798 67.5051,75.2691 77.5959,69.2132 C87.6868,63.1572 99.217,59.873599999999996 111.006,59.698499999999996 C122.79499999999999,59.5235 134.418,62.463300000000004 144.687,68.2169 C154.956,73.9705 163.5,82.3311 169.445,92.443 C175.391,102.554 178.523,114.054 178.522,125.763 z" fill="url(#paint0_linear_0_1655)" id="svg_1" class=""/><path d="M129.432,130.542 C133.669,134.873 146.012,151.727 146.012,151.727 L138.43,162.767 L131.612,140.834 L129.432,130.542 z" fill="url(#paint1_linear_0_1655)" id="svg_2" class=""/><path d="M142.396,184.553 C141.77,184.879 141.134,185.19 140.492,185.491 C140.2,185.633 139.913,185.766 139.615,185.898 C137.758,186.744 135.853,187.503 133.9,188.176 C132.361,188.685 130.781,189.195 129.186,189.612 C119.983,192.044 110.363,192.494 100.97,190.932 C99.857,190.749 98.759,190.54 97.666,190.3 C93.665,193.041 89.9713,195.359 87.5243,196.414 L87.7243,194.718 L88.5554,187.62 L90.479,171.108 L98.102,163.786 L80.9629,165.106 C80.9629,165.106 82.7635,140.294 89.7918,135.189 C96.82,130.083 104.192,125.50800000000001 104.192,125.50800000000001 C105.071,126.084 106.04,126.513 107.06,126.77699999999999 C109.497,127.446 112.031,127.703 114.555,127.536 C117.561,127.398 120.56700000000001,124.62200000000001 120.71100000000001,124.47900000000001 C120.71100000000001,124.47900000000001 125.43,125.411 129.432,130.562 C131.428,133.214 132.86,136.24 133.644,139.458 C134.629,143.223 136.378,152.017 138.369,162.64 C139.672,169.477 141.041,177.059 142.396,184.553 z" fill="url(#paint2_linear_0_1655)" id="svg_3" class=""/><path d="M146.012,151.747 L153.328,160.261 L179.055,134.898 L180.03,129.706 L185.16,125.279 L182.877,132.03 V140.823 C182.877,140.823 163.034,172.769 157.565,174.414 C151.168,176.345 138.44,162.757 138.44,162.757 L146.012,151.747 z" fill="url(#paint3_linear_0_1655)" id="svg_4" class=""/><path d="M119.30600000000001,163.389 L125.27199999999999,177.655 L132.982,174.363 L127.32900000000001,160.403 L119.30600000000001,163.389 z" fill="#7E57C2" id="svg_5" class=""/><path d="M127.61600000000001,172.606 C126.65700000000001,173.39 125.225,173.207 123.44999999999999,173.298 C121.066,173.361 118.77799999999999,174.251 116.986,175.815 C114.601,177.807 107.932,183.02 101.263,187.778 C100.052,188.639 98.841,189.49 97.672,190.326 C93.67,193.067 89.9766,195.385 87.5295,196.439 C86.8862,196.757 86.1915,196.958 85.4775,197.036 C82.0506,197.122 81.317,189.989 81.1066,184.298 C81.04,182.408 81.0246,180.681 80.9886,179.433 C80.845,174.44 80.9886,165.167 80.9886,165.167 L98.128,163.842 L96.312,175.632 L95.994,177.716 V177.731 L101.124,175.846 L101.283,175.79 L119.495,169.07 L120.75200000000001,166.915 L121.55199999999999,168.952 H121.62899999999999 L129.427,167.934 C129.427,167.934 129.56,171.021 127.61600000000001,172.606 z" fill="url(#paint4_linear_0_1655)" id="svg_6" class=""/><path d="M123.68100000000001,98.25 C123.23400000000001,97.038 122.85,96.212 122.737,95.968 V95.907 C122.737,95.907 122.34200000000001,96.875 119.36600000000001,96.64 C116.391,96.406 115.406,94.939 115.406,94.939 C115.406,94.939 116.34,98.118 112.795,99.478 C109.383,100.793 108.039,99.942 107.947,99.881 C108.126,100.074 110.794,102.907 109.024,105.154 C107.193,107.482 103.073,107.024 103.073,107.024 V107.054 C103.592,108.22 104.172,109.358 104.812,110.463 C105.151,111.044 105.484,111.579 105.838,112.078 V112.114 C106.747,113.581 107.974,114.829 109.429,115.767 C108.79,119.495 106.952,122.918 104.192,125.523 C105.12,126.005 106.078,126.428 107.059,126.792 C108.973,127.50999999999999 111.543,128.224 113.836,128.025 C116.493,127.743 118.94800000000001,126.48599999999999 120.721,124.499 L119.54599999999999,120.02099999999999 L118.489,115.986 C128.041,113.566 125.41499999999999,103.04 123.68100000000001,98.25 zM117.956,116.133 L118.125,116.093 L118.39699999999999,116.016 C118.001,116.186 117.583,116.299 117.155,116.353 C117.376,116.296 117.602,116.235 117.838,116.164 L117.956,116.133 z" fill="url(#paint5_linear_0_1655)" id="svg_7" class=""/><path d="M129.432,95.774 C125.49199999999999,99.371 123.78899999999999,98.357 123.68100000000001,98.261 V98.25 C123.23500000000001,97.038 122.85,96.212 122.743,95.968 L122.71700000000001,95.907 C122.71700000000001,95.907 122.31700000000001,96.875 119.34100000000001,96.64 C116.366,96.406 115.386,94.939 115.386,94.939 C115.386,94.939 116.32,98.118 112.775,99.478 C109.358,100.793 108.014,99.942 107.927,99.881 C108.107,100.069 110.774,102.902 109.004,105.149 C107.173,107.477 103.053,107.024 103.053,107.024 V107.049 C103.572,108.217 104.152,109.356 104.792,110.463 C105.134,111.04 105.476,111.579 105.818,112.078 V112.114 C105.818,112.114 104.413,114.86 101.904,114.804 C99.396,114.748 99.339,112.256 99.339,112.256 C99.339,112.256 97.564,115.435 92.08,112.373 C86.5961,109.311 90.254,104.874 90.254,104.874 C90.254,104.874 86.3652,101.919 86.3652,97.491 C86.3652,93.064 92.419,89.696 92.419,89.696 C92.419,89.696 90.254,84.5552 93.906,81.7224 C97.559,78.8897 103.048,80.8104 103.048,80.8104 C103.048,80.8104 102.941,74.2329 108.532,74.3399 C114.124,74.4469 115.391,77.8452 115.391,77.8452 C115.391,77.8452 120.41900000000001,73.9833 125.39500000000001,77.621 C130.371,81.2588 128.324,87.602 128.324,87.602 C128.324,87.602 133.541,92.029 129.432,95.774 z" fill="url(#paint6_linear_0_1655)" id="svg_8" class=""/><path opacity="0.15" d="M119.58699999999999,120.006 C117.202,119.257 112.959,116.398 112.959,116.398 C114.633,116.574 116.325,116.485 117.971,116.134 L118.13999999999999,116.093 L118.469,115.996 H118.51499999999999 L119.58699999999999,120.006 z" fill="black" id="svg_9" class=""/><path opacity="0.15" d="M100.416,148.547 L98.103,163.832 L96.287,175.622 L92.06,179.112 L101.258,175.795 C101.258,175.795 98.872,169.029 100.416,148.547 z" fill="black" id="svg_10" class=""/><path opacity="0.15" d="M97.656,190.3 C98.749,190.54 99.847,190.749 100.96,190.932 C101.016,189.888 101.119,188.833 101.263,187.778 L97.656,190.3 z" fill="black" id="svg_11" class=""/><g filter="url(#filter0_d_0_1655)" id="svg_12" class="">
<path d="M75.423,0 H47.9925 C44.2072,0 41.1387,3.0474999999999994 41.1387,6.806799999999999 V34.0493 C41.1387,37.8086 44.2072,40.8561 47.9925,40.8561 H75.423 C79.2083,40.8561 82.2768,37.8086 82.2768,34.0493 V6.806799999999999 C82.2768,3.0474999999999994 79.2083,0 75.423,0 z" fill="#56CCF2" id="svg_13"/>
</g><path d="M72,19 H67.83 L71.07,15.760000000000002 L69.66,14.34 L65,19 H63 V17 L67.66,12.34 L66.24,10.93 L63,14.170000000000002 V10 H61 V14.170000000000002 L57.760000000000005,10.93 L56.34,12.34 L61,17 V19 H59 L54.34,14.34 L52.93,15.760000000000002 L56.17,19 H52 V21 H56.17 L52.93,24.240000000000002 L54.34,25.659999999999997 L59,21 H61 V23 L56.34,27.659999999999997 L57.760000000000005,29.07 L61,25.83 V30 H63 V25.83 L66.24,29.07 L67.66,27.659999999999997 L63,23 V21 H65 L69.66,25.659999999999997 L71.07,24.240000000000002 L67.83,21 H72 V19 z" fill="white" id="svg_14" class=""/><g filter="url(#filter1_d_0_1655)" id="svg_15" class="">
<path d="M217.284,103 H189.854 C186.069,103 183,106.048 183,109.807 V137.049 C183,140.809 186.069,143.856 189.854,143.856 H217.284 C221.07,143.856 224.138,140.809 224.138,137.049 V109.807 C224.138,106.048 221.07,103 217.284,103 z" fill="#F2C94C" id="svg_16"/>
</g><path d="M213,120 C213,115 209,111 204,111 C199,111 195,115 195,120 C195,123.1 196.6,125.9 199,127.5 V130 C199,131.3 199.8,132.4 201,132.8 V133 C201,134.7 202.3,136 204,136 C205.7,136 207,134.7 207,133 V132.8 C208.2,132.4 209,131.3 209,130 V127.5 C211.4,125.9 213,123.1 213,120 zM197,120 C197,116.1 200.1,113 204,113 C207.9,113 211,116.1 211,120 C211,123.5 208.4,126.4 205,126.9 V124.4 L206.7,122.69999999999999 C207.1,122.30000000000001 207.1,121.69999999999999 206.7,121.30000000000001 C206.3,120.9 205.7,120.9 205.3,121.30000000000001 L204,122.6 L202.7,121.30000000000001 C202.3,120.9 201.7,120.9 201.3,121.30000000000001 C200.9,121.69999999999999 200.9,122.30000000000001 201.3,122.69999999999999 L203,124.4 V126.9 C199.6,126.4 197,123.5 197,120 zM204,134 C203.4,134 203,133.6 203,133 H205 C205,133.6 204.6,134 204,134 zM207,130 C207,130.6 206.6,131 206,131 H202 C201.4,131 201,130.6 201,130 V128.5 C201.9,128.8 202.9,129 204,129 C205.1,129 206.1,128.8 207,128.5 V130 z" fill="white" id="svg_17" class=""/><g filter="url(#filter2_d_0_1655)" id="svg_18" class="">
<path d="M34.2844,103 H6.8538 C3.0685000000000002,103 0,106.048 0,109.807 V137.049 C0,140.809 3.0685000000000002,143.856 6.8538,143.856 H34.2844 C38.0696,143.856 41.1381,140.809 41.1381,137.049 V109.807 C41.1381,106.048 38.0696,103 34.2844,103 z" fill="#F58A8A" id="svg_19"/>
</g><path d="M27,120 H26 V118 C26,115.24 23.759999999999998,113 21,113 C18.24,113 16,115.24 16,118 V120 H15 C13.899999999999999,120 13,120.9 13,122 V132 C13,133.1 13.899999999999999,134 15,134 H27 C28.1,134 29,133.1 29,132 V122 C29,120.9 28.1,120 27,120 zM21,129 C19.9,129 19,128.1 19,127 C19,125.9 19.9,125 21,125 C22.1,125 23,125.9 23,127 C23,128.1 22.1,129 21,129 zM24.1,120 H17.9 V118 C17.9,116.29 19.29,114.9 21,114.9 C22.71,114.9 24.1,116.29 24.1,118 V120 z" fill="white" id="svg_20" class=""/><g filter="url(#filter3_d_0_1655)" id="svg_21" class="">
<path d="M172.284,0 H144.854 C141.069,0 138,3.0474999999999994 138,6.806799999999999 V34.0493 C138,37.8086 141.069,40.8561 144.854,40.8561 H172.284 C176.07,40.8561 179.138,37.8086 179.138,34.0493 V6.806799999999999 C179.138,3.0474999999999994 176.07,0 172.284,0 z" fill="#6FCF97" id="svg_22"/>
</g><path d="M164.311,14.8965 H147.979 V25.103299999999997 H164.311 V14.8965 z" fill="white" id="svg_23" class=""/><path d="M168.713,16.9276 L165.108,18.4427 V21.6003 L168.713,23.115299999999998 H170.02 V16.9276 H168.713 z" fill="white" id="svg_24" class=""/></g></svg>